<svg width="218" height="480" viewBox="0 0 218 480" fill="none" xmlns="http://www.w3.org/2000/svg">
<path d="M203.694 0.902297L101.42 0.905507C101.415 0.905507 101.411 0.904228 101.407 0.904871L50.2612 0.90294C36.8984 0.90294 24.3099 6.13281 14.8135 15.6292C5.3159 25.1268 0.086023 37.7153 0.0853792 51.0774L0.086039 429.48C0.0853953 457.146 22.5953 479.654 50.2631 479.654L101.407 479.652C101.409 479.652 101.411 479.652 101.412 479.652L203.697 479.652C207.464 479.652 210.875 478.125 213.343 475.657C215.812 473.188 217.339 469.776 217.339 466.01C217.339 458.476 211.231 452.367 203.696 452.367L115.047 452.367L115.047 415.158L203.695 415.157C207.464 415.157 210.874 413.63 213.343 411.161C215.811 408.693 217.339 405.281 217.338 401.514C217.337 393.98 211.23 387.872 203.695 387.872L115.047 387.874L115.046 350.663L203.695 350.661C207.463 350.661 210.873 349.134 213.342 346.665C215.811 344.197 217.338 340.785 217.337 337.019C217.338 329.483 211.229 323.377 203.694 323.377L115.048 323.377L115.049 286.168L203.695 286.166C207.464 286.166 210.874 284.639 213.343 282.17C215.811 279.702 217.339 276.29 217.337 272.524C217.337 264.99 211.229 258.882 203.695 258.881L115.049 258.883L115.049 221.672L203.696 221.671C207.464 221.671 210.875 220.145 213.343 217.676C215.812 215.207 217.339 211.796 217.338 208.03C217.338 200.496 211.23 194.388 203.695 194.387L115.048 194.388L115.048 157.177L203.695 157.176C207.463 157.175 210.874 155.649 213.343 153.18C215.811 150.712 217.339 147.3 217.337 143.534C217.337 136 211.229 129.892 203.695 129.891L115.047 129.892L115.047 92.6836L203.696 92.6817C207.464 92.681 210.875 91.1549 213.343 88.6859C215.812 86.2176 217.339 82.8059 217.338 79.0397C217.338 71.5062 211.23 65.3978 203.695 65.3972L115.047 65.3991L115.047 28.1906L203.692 28.1874C207.46 28.1874 210.87 26.6606 213.339 24.1917C215.807 21.7234 217.335 18.3116 217.333 14.5455C217.337 7.00874 211.228 0.902296 203.694 0.902297Z" fill="#FF1994"/>
</svg>
