<svg width="496" height="496" viewBox="0 0 496 496" fill="none" xmlns="http://www.w3.org/2000/svg">
<path d="M450.207 480.703C458.621 489.117 472.263 489.117 480.677 480.703C489.091 472.289 489.091 458.648 480.677 450.234L45.7725 15.3294C37.3585 6.91542 23.7168 6.91542 15.3028 15.3294C6.88883 23.7434 6.88883 37.3851 15.3028 45.7991L450.207 480.703Z" fill="white"/>
<path d="M450.205 386.856C458.619 395.27 472.26 395.27 480.674 386.856C489.088 378.442 489.088 364.8 480.674 356.386L139.603 15.3149C131.189 6.90093 117.548 6.90092 109.134 15.3149C100.72 23.7289 100.72 37.3706 109.134 45.7846L450.205 386.856Z" fill="white"/>
<path d="M350.619 480.685C359.033 489.099 372.675 489.099 381.089 480.685C389.503 472.271 389.503 458.629 381.089 450.215L45.7732 114.899C37.3592 106.485 23.7174 106.485 15.3035 114.899C6.88949 123.313 6.88949 136.955 15.3035 145.369L350.619 480.685Z" fill="white"/>
<path d="M254.869 480.701C263.283 489.115 276.925 489.115 285.339 480.701C293.753 472.287 293.753 458.645 285.339 450.231L45.7795 210.671C37.3655 202.257 23.7238 202.257 15.3098 210.671C6.89586 219.085 6.89584 232.727 15.3098 241.141L254.869 480.701Z" fill="white"/>
<path d="M450.21 296.838C458.624 305.252 472.266 305.252 480.68 296.838C489.094 288.424 489.094 274.782 480.68 266.368L229.623 15.3114C221.209 6.8974 207.567 6.8974 199.153 15.3114C190.739 23.7253 190.739 37.3671 199.153 45.7811L450.21 296.838Z" fill="white"/>
<path d="M450.21 197.249C458.623 205.663 472.265 205.663 480.679 197.249C489.093 188.835 489.093 175.194 480.679 166.78L329.211 15.3113C320.797 6.89729 307.155 6.89728 298.741 15.3113C290.327 23.7252 290.327 37.367 298.741 45.781L450.21 197.249Z" fill="white"/>
<path d="M159.106 480.703C167.52 489.117 181.162 489.117 189.576 480.703C197.99 472.289 197.99 458.647 189.576 450.233L45.7722 306.43C37.3583 298.016 23.7165 298.016 15.3025 306.43C6.88853 314.844 6.88855 328.486 15.3025 336.9L159.106 480.703Z" fill="white"/>
<path d="M65.2618 480.685C73.6757 489.099 87.3175 489.099 95.7315 480.685C104.145 472.271 104.145 458.629 95.7315 450.215L45.7611 400.245C37.3472 391.831 23.7054 391.831 15.2914 400.245C6.87747 408.659 6.87746 422.301 15.2914 430.715L65.2618 480.685Z" fill="white"/>
<path d="M450.203 101.496C458.617 109.91 472.259 109.91 480.673 101.496C489.087 93.0821 489.087 79.4404 480.673 71.0264L424.961 15.3142C416.547 6.90024 402.905 6.90024 394.491 15.3142C386.077 23.7282 386.077 37.3699 394.491 45.7839L450.203 101.496Z" fill="white"/>
</svg>
