<svg width="357" height="473" viewBox="0 0 357 473" fill="none" xmlns="http://www.w3.org/2000/svg">
<path d="M1.7969 0C31.1173 31.5448 60.4501 63.0772 91.4558 96.4324C94.0211 86.3515 95.7932 79.3704 97.8255 71.3726C102.919 80.474 107.318 88.3354 113.105 98.6395C118.273 86.6118 121.991 77.9445 125.448 69.8847C130.244 81.714 133.739 93.2829 139.637 103.463C142.141 107.778 149.613 111.374 154.942 111.523C216.619 113.184 261.727 141.084 290.242 195.779C298.632 211.886 306.489 228.291 314.147 244.758C323.033 263.865 333.715 281.101 355.798 287.846C355.29 288.739 354.782 289.632 354.274 290.525C343.988 286.929 333.69 283.321 321.483 279.043C328.299 298.51 344.236 306.657 357 319.007C345.017 313.911 333.046 308.827 318.646 302.701C325.313 330.005 339.279 350.49 355.823 369.164C308.36 452.477 136.019 501.704 50.8584 454.821C65.3327 437.672 79.7079 421.094 93.4262 403.982C96.4748 400.175 99.0276 394.372 98.7054 389.71C95.2108 337.681 110.714 293.03 148.56 256.649C150.097 255.173 151.026 253.053 153.901 248.763C134.73 255.892 116.501 252.966 100.18 264.213C88.7295 272.111 75.2962 276.079 65.2831 287.76C50.8088 304.623 36.223 303.718 16.3456 288.876C4.34973 279.911 1.7969 262.663 11.7356 245.985C20.8192 230.733 31.4023 216.35 41.6384 201.817C48.6773 191.823 55.7905 182.697 55.3196 168.834C55.1461 163.589 63.2012 156.943 68.8893 152.863C82.397 143.167 82.7316 142.993 74.2676 128.597C49.4209 86.3514 24.7352 44.0313 0 1.76076C0.607227 1.17797 1.20206 0.582785 1.80929 0H1.7969Z" fill="#FF1994"/>
</svg>
