<svg width="436" height="475" viewBox="0 0 436 475" fill="none" xmlns="http://www.w3.org/2000/svg">
<path d="M120.647 44.5761L119.532 44.7228V358.519C103.939 355.121 86.2885 355.256 69.3924 358.884C47.0911 363.688 27.7922 374.081 14.9978 388.111C2.16662 402.22 -2.50095 418.242 1.82621 433.146C6.16257 456.862 38.4629 474.726 76.9504 474.726C85.4774 474.726 93.9707 473.844 102.174 472.066C139.97 463.998 168.284 439.687 171.028 412.835L172.304 145.978L384.28 112.564V314.67C368.406 311.176 350.395 311.287 333.179 314.94C286.514 325.031 255.981 358.854 265.09 390.359C272.327 415.345 302.333 432.131 339.781 432.131C348.621 432.131 357.578 431.177 366.344 429.289C409.324 419.928 436 394.426 436 362.755V0.463867L120.647 44.5761Z" fill="white"/>
</svg>
